<svg width="28" height="22" viewBox="0 0 28 22" fill="none" xmlns="http://www.w3.org/2000/svg">
<path d="M3.60001 1.00031H24.3994C25.075 0.989305 25.7276 1.24599 26.2147 1.71434C26.7017 2.18269 26.9838 2.82469 26.9993 3.50023V18.4998C26.9838 19.1753 26.7017 19.8173 26.2147 20.2857C25.7276 20.754 25.075 21.0107 24.3994 20.9997H3.60001C2.92438 21.0107 2.27181 20.754 1.78473 20.2857C1.29765 19.8173 1.01558 19.1753 1.00009 18.4998V3.50023C1.01558 2.82469 1.29765 2.18269 1.78473 1.71434C2.27181 1.24599 2.92438 0.989305 3.60001 1.00031V1.00031Z" stroke="#FFD580" stroke-width="2" stroke-linecap="round" stroke-linejoin="round"/>
<path d="M26.9993 4.38698L13.9997 13.2697L1.00009 4.38698" stroke="#FFD580" stroke-width="2" stroke-linecap="round" stroke-linejoin="round"/>
</svg>
