<svg width="28" height="28" viewBox="0 0 28 28" fill="none" xmlns="http://www.w3.org/2000/svg">
<path d="M26.9993 20.4661V24.38C27.0004 24.7438 26.9255 25.1037 26.7794 25.4369C26.6334 25.77 26.4193 26.0689 26.151 26.3145C25.8827 26.5601 25.5661 26.747 25.2214 26.8631C24.8767 26.9793 24.5115 27.0222 24.1493 26.989C20.1275 26.5534 16.2636 25.1818 12.8674 22.984C9.70981 20.9821 7.03176 18.3095 5.0234 15.1561C2.8146 11.7536 1.4397 7.87793 1.01041 3.84412C0.978051 3.48293 1.02129 3.11895 1.13736 2.77539C1.25344 2.43183 1.43981 2.11621 1.6846 1.84866C1.92939 1.5811 2.22723 1.36747 2.55914 1.22138C2.89105 1.07529 3.24976 0.99994 3.6124 1.00014H7.53438C8.16813 0.993548 8.78267 1.21752 9.26356 1.63034C9.74445 2.04316 10.0589 2.61669 10.1484 3.24413C10.3139 4.49676 10.6209 5.7266 11.0634 6.91011C11.2392 7.37712 11.2773 7.88481 11.1731 8.37283C11.0688 8.86085 10.8267 9.30868 10.4754 9.6631L8.81538 11.3201C10.678 14.5877 13.388 17.2921 16.6593 19.1481L18.3193 17.4911C18.6751 17.1402 19.1238 16.8985 19.6126 16.7945C20.1013 16.6905 20.6095 16.7285 21.0773 16.9041C22.2634 17.3457 23.4955 17.6519 24.7503 17.8171C25.3849 17.9057 25.9648 18.2246 26.3795 18.7131C26.7942 19.2016 27.0148 19.8255 26.9993 20.4661Z" stroke="#FFD580" stroke-width="2" stroke-linecap="round" stroke-linejoin="round"/>
</svg>
