<svg width="23" height="28" viewBox="0 0 23 28" fill="none" xmlns="http://www.w3.org/2000/svg">
<path d="M21.9999 11.6359C21.9999 19.9087 11.5 26.9996 11.5 26.9996C11.5 26.9996 1.0002 19.9087 1.0002 11.6359C0.982371 8.83317 2.07854 6.13816 4.04759 4.1436C6.01665 2.14904 8.69733 1.01829 11.5 1.00005C14.3027 1.01829 16.9834 2.14904 18.9525 4.1436C20.9215 6.13816 22.0177 8.83317 21.9999 11.6359V11.6359Z" stroke="#FFD580" stroke-width="2" stroke-linecap="round" stroke-linejoin="round"/>
<path d="M11.6401 16.0038C13.8492 16.0038 15.64 14.213 15.64 12.0039C15.64 9.79479 13.8492 8.00396 11.6401 8.00396C9.43097 8.00396 7.64014 9.79479 7.64014 12.0039C7.64014 14.213 9.43097 16.0038 11.6401 16.0038Z" stroke="#FFD580" stroke-width="2" stroke-linecap="round" stroke-linejoin="round"/>
</svg>
