<svg width="49" height="73" viewBox="0 0 49 73" fill="none" xmlns="http://www.w3.org/2000/svg">
<path d="M16.32 54.5586L20.759 38.7851C20.759 38.7851 11.6834 17.3778 9.22286 11.3627C6.76236 5.34756 11.7862 1.0084 11.7862 1.0084L24.3771 31.1838H24.3892L36.9811 1.01042C36.9811 1.01042 42.01 5.34655 39.5465 11.3647C37.083 17.3828 28.0074 38.7851 28.0074 38.7851L32.4161 54.4476" stroke="#FFD580" stroke-width="2" stroke-linecap="round" stroke-linejoin="round"/>
<path d="M20.2871 62.3495C20.2877 64.5151 19.559 66.6179 18.2186 68.3188C16.8781 70.0197 15.0039 71.2197 12.8981 71.7253C10.7923 72.2308 8.57764 72.0126 6.61105 71.1057C4.64446 70.1987 3.04052 68.656 2.05785 66.7262C1.07519 64.7963 0.771043 62.5918 1.1944 60.468C1.61775 58.3441 2.74398 56.4247 4.39151 55.0191C6.03903 53.6135 8.11184 52.8037 10.2759 52.7202C12.4399 52.6366 14.569 53.2842 16.32 54.5586" stroke="#FFD580" stroke-width="2" stroke-linecap="round" stroke-linejoin="round"/>
<path d="M32.4161 54.4487C34.1844 53.2144 36.3157 52.609 38.4688 52.7293C40.6219 52.8496 42.6723 53.6888 44.2921 55.1124C45.9118 56.5361 47.0072 58.4619 47.4028 60.5817C47.7985 62.7016 47.4715 64.8929 46.4744 66.805C45.4772 68.717 43.8675 70.2393 41.9028 71.1282C39.938 72.0171 37.7319 72.2212 35.6374 71.7079C33.543 71.1945 31.6813 69.9934 30.3502 68.2968C29.0192 66.6001 28.2958 64.506 28.2958 62.3495" stroke="#FFD580" stroke-width="2" stroke-linecap="round" stroke-linejoin="round"/>
<path d="M20.2869 62.3496C20.3495 59.6763 20.8718 43.7385 24.2943 43.7385C27.7168 43.7385 28.2352 59.6813 28.2947 62.2215" stroke="#FFD580" stroke-width="2" stroke-linecap="round" stroke-linejoin="round"/>
</svg>
