<svg width="61" height="52" viewBox="0 0 61 52" fill="none" xmlns="http://www.w3.org/2000/svg">
<path d="M28.5568 28.3387H11.4412V42.9176H28.5568V28.3387Z" stroke="#FFD580" stroke-width="3" stroke-linecap="round" stroke-linejoin="round"/>
<path d="M55.0443 23.39V50.4332" stroke="#FFD580" stroke-width="3" stroke-linecap="round" stroke-linejoin="round"/>
<path d="M6.03322 23.4253V50.4343" stroke="#FFD580" stroke-width="3" stroke-linecap="round" stroke-linejoin="round"/>
<path d="M59.4915 14.6503H1.5809L8.21408 1.50754H52.7699L56.9609 9.70051L59.4915 14.6503Z" stroke="#FFD580" stroke-width="3" stroke-linecap="round" stroke-linejoin="round"/>
<path d="M44.9649 18.5789C44.9649 21.4704 41.7216 23.8161 37.7226 23.8161C33.7237 23.8161 30.4804 21.4704 30.4804 18.5789" stroke="#FFD580" stroke-width="3" stroke-linecap="round" stroke-linejoin="round"/>
<path d="M59.4925 14.6503L59.4483 18.585C59.4275 19.6455 59.0097 20.6597 58.2774 21.4272C57.3973 22.3619 56.2797 23.04 55.0442 23.389C54.1228 23.6691 53.1651 23.8117 52.202 23.8121C51.4902 23.8131 50.7804 23.7383 50.0844 23.589C48.5742 23.2921 47.1922 22.5369 46.1266 21.4262C45.4118 20.6829 44.9951 19.7029 44.9558 18.6724V14.6523L59.4925 14.6503Z" stroke="#FFD580" stroke-width="3" stroke-linecap="round" stroke-linejoin="round"/>
<path d="M30.5468 14.6483L30.4794 18.5809C30.4794 21.4744 27.2352 23.8071 23.2332 23.8071C19.2312 23.8071 15.997 21.4704 15.997 18.5809" stroke="#FFD580" stroke-width="3" stroke-linecap="round" stroke-linejoin="round"/>
<path d="M1.50754 18.5809C1.50754 20.7809 3.3799 22.6513 6.03016 23.4242C6.91321 23.684 7.82928 23.8143 8.74976 23.8111C12.7518 23.8111 15.996 21.4744 15.996 18.585V14.6483H1.58593L1.50754 18.5809Z" stroke="#FFD580" stroke-width="3" stroke-linecap="round" stroke-linejoin="round"/>
<path d="M49.4001 50.4342V28.3387H36.2945V50.4342" stroke="#FFD580" stroke-width="3" stroke-linecap="round" stroke-linejoin="round"/>
<path d="M59.4915 50.4341H1.5809" stroke="#FFD580" stroke-width="3" stroke-linecap="round" stroke-linejoin="round"/>
<path d="M44.799 38.3648V40.407" stroke="#FFD580" stroke-width="3" stroke-linecap="round" stroke-linejoin="round"/>
</svg>
