<svg width="48" height="68" viewBox="0 0 48 68" fill="none" xmlns="http://www.w3.org/2000/svg">
<path d="M24.0957 31.7703C24.7007 31.7703 25.0303 32.1631 25.0303 32.4657C25.0303 32.7682 24.7007 33.161 24.0957 33.161C23.491 33.1608 23.1621 32.7682 23.1621 32.4657C23.1621 32.1631 23.491 31.7706 24.0957 31.7703Z" fill="#BE9359" stroke="#FFD580"/>
<path d="M18.688 8.95698C18.6886 7.3991 18.0617 5.88615 16.9076 4.66067C15.7536 3.4352 14.1393 2.56816 12.3236 2.19855C10.5079 1.82895 8.59587 1.97819 6.89403 2.62234C5.1922 3.26648 3.79912 4.36824 2.93813 5.75099C2.07713 7.13374 1.79808 8.7174 2.1457 10.2481C2.49332 11.7788 3.44749 13.1679 4.85524 14.1927C6.26299 15.2175 8.0428 15.8187 9.90935 15.8999C11.7759 15.981 13.6211 15.5375 15.1491 14.6403C16.2421 13.9986 17.1341 13.1473 17.7499 12.1583C18.3658 11.1692 18.6875 10.0713 18.688 8.95698Z" stroke="#FFD580" stroke-width="4" stroke-linecap="round" stroke-linejoin="round"/>
<path d="M46 8.95829C45.9994 7.58389 45.5099 6.24049 44.5935 5.09793C43.677 3.95536 42.3747 3.06495 40.8511 2.53924C39.3275 2.01353 37.6512 1.87614 36.034 2.14445C34.4167 2.41275 32.9313 3.0747 31.7654 4.0466C30.5994 5.0185 29.8054 6.25672 29.4837 7.6047C29.162 8.95268 29.327 10.3499 29.9579 11.6197C30.5888 12.8895 31.6572 13.9749 33.0281 14.7387C34.3991 15.5025 36.0109 15.9103 37.6598 15.9106C38.7552 15.9108 39.84 15.7312 40.852 15.3819C41.8641 15.0326 42.7837 14.5205 43.5582 13.8748C44.3327 13.2292 44.9471 12.4627 45.366 11.6191C45.785 10.7755 46.0004 9.87131 46 8.95829V8.95829Z" stroke="#FFD580" stroke-width="4" stroke-linecap="round" stroke-linejoin="round"/>
<path d="M37.8455 59.8938C37.8446 58.5332 37.6146 57.1795 37.1625 55.8722L28.9854 32.2174L26.1216 23.9245C25.5811 24.079 25.0136 24.1574 24.4422 24.1565C24.2957 24.1575 24.1493 24.1518 24.0036 24.1396V24.1396C23.1411 24.0774 22.3104 23.839 21.5849 23.4453C20.8593 23.0517 20.2615 22.5151 19.8441 21.883L15.0631 14.6904C13.6725 15.4874 12.0241 15.9133 10.3365 15.9116L19.0217 32.2218L24.0073 41.5457L36.644 65.1836C37.4362 63.498 37.8436 61.704 37.8455 59.8938V59.8938Z" stroke="#FFD580" stroke-width="4" stroke-linecap="round" stroke-linejoin="round"/>
<path d="M38.7332 15.8506C36.975 16.0425 35.1893 15.7607 33.6369 15.0466L26.1249 23.9238L29.2033 32.838L38.7332 15.8506Z" stroke="#FFD580" stroke-width="4" stroke-linecap="round" stroke-linejoin="round"/>
<path d="M24.0796 41.6752L19.0221 32.2201L10.7576 55.8721C9.68314 58.9384 9.86744 62.2159 11.2813 65.185L24.0796 41.6752Z" stroke="#FFD580" stroke-width="4" stroke-linecap="round" stroke-linejoin="round"/>
</svg>
